{
    "asset" : {
        "generator" : "Khronos glTF Blender I/O v1.7.33",
        "version" : "2.0"
    },
    "scene" : 0,
    "scenes" : [
        {
            "name" : "Scene",
            "nodes" : [
                0,
                1,
                2,
                3,
                4,
                5
            ]
        }
    ],
    "nodes" : [
        {
            "mesh" : 0,
            "name" : "corner monitor"
        },
        {
            "mesh" : 1,
            "name" : "Superstructure"
        },
        {
            "mesh" : 2,
            "name" : "ControlsLeft"
        },
        {
            "mesh" : 3,
            "name" : "ButtonRight"
        },
        {
            "mesh" : 4,
            "name" : "ControlsBottom"
        },
        {
            "mesh" : 5,
            "name" : "LED_Button",
            "translation" : [
                0,
                0,
                0.015729399397969246
            ]
        }
    ],
    "materials" : [
        {
            "doubleSided" : true,
            "name" : "Border",
            "pbrMetallicRoughness" : {
                "baseColorFactor" : [
                    0.00046315757208503783,
                    0.0009686960256658494,
                    0.0025794128887355328,
                    1
                ],
                "metallicFactor" : 0,
                "roughnessFactor" : 0.5
            }
        },
        {
            "doubleSided" : true,
            "name" : "Screen",
            "pbrMetallicRoughness" : {
                "baseColorFactor" : [
                    0.800000011920929,
                    0.800000011920929,
                    0.800000011920929,
                    1
                ],
                "metallicFactor" : 0,
                "roughnessFactor" : 0.5
            }
        },
        {
            "doubleSided" : true,
            "name" : "Superstructure",
            "pbrMetallicRoughness" : {
                "baseColorFactor" : [
                    0.09530746936798096,
                    0.03433981165289879,
                    0.17788845300674438,
                    1
                ],
                "metallicFactor" : 0,
                "roughnessFactor" : 0.5
            }
        },
        {
            "doubleSided" : true,
            "emissiveFactor" : [
                0.005331048741936684,
                0.23954573273658752,
                8.339263877132908e-05
            ],
            "name" : "LED",
            "pbrMetallicRoughness" : {
                "baseColorFactor" : [
                    0.00977607723325491,
                    0.32637518644332886,
                    0.006129940506070852,
                    1
                ],
                "metallicFactor" : 0,
                "roughnessFactor" : 0.5
            }
        }
    ],
    "meshes" : [
        {
            "name" : "Cube.004",
            "primitives" : [
                {
                    "attributes" : {
                        "POSITION" : 0,
                        "NORMAL" : 1,
                        "TEXCOORD_0" : 2
                    },
                    "indices" : 3,
                    "material" : 0
                },
                {
                    "attributes" : {
                        "POSITION" : 4,
                        "NORMAL" : 5,
                        "TEXCOORD_0" : 6
                    },
                    "indices" : 7,
                    "material" : 1
                }
            ]
        },
        {
            "name" : "Cube.005",
            "primitives" : [
                {
                    "attributes" : {
                        "POSITION" : 8,
                        "NORMAL" : 9,
                        "TEXCOORD_0" : 10
                    },
                    "indices" : 11,
                    "material" : 2
                },
                {
                    "attributes" : {
                        "POSITION" : 12,
                        "NORMAL" : 13,
                        "TEXCOORD_0" : 14
                    },
                    "indices" : 15,
                    "material" : 0
                }
            ]
        },
        {
            "name" : "Cube.008",
            "primitives" : [
                {
                    "attributes" : {
                        "POSITION" : 16,
                        "NORMAL" : 17,
                        "TEXCOORD_0" : 18
                    },
                    "indices" : 19,
                    "material" : 0
                }
            ]
        },
        {
            "name" : "Cube.009",
            "primitives" : [
                {
                    "attributes" : {
                        "POSITION" : 20,
                        "NORMAL" : 21,
                        "TEXCOORD_0" : 22
                    },
                    "indices" : 23,
                    "material" : 0
                }
            ]
        },
        {
            "name" : "Cube.010",
            "primitives" : [
                {
                    "attributes" : {
                        "POSITION" : 24,
                        "NORMAL" : 25,
                        "TEXCOORD_0" : 26
                    },
                    "indices" : 27,
                    "material" : 0
                }
            ]
        },
        {
            "name" : "Cube.001",
            "primitives" : [
                {
                    "attributes" : {
                        "POSITION" : 28,
                        "NORMAL" : 29,
                        "TEXCOORD_0" : 30
                    },
                    "indices" : 31,
                    "material" : 3
                }
            ]
        }
    ],
    "accessors" : [
        {
            "bufferView" : 0,
            "componentType" : 5126,
            "count" : 856,
            "max" : [
                0.3812750577926636,
                1.465637445449829,
                0.17319604754447937
            ],
            "min" : [
                -0.3869704008102417,
                0.9058457016944885,
                0.12331123650074005
            ],
            "type" : "VEC3"
        },
        {
            "bufferView" : 1,
            "componentType" : 5126,
            "count" : 856,
            "type" : "VEC3"
        },
        {
            "bufferView" : 2,
            "componentType" : 5126,
            "count" : 856,
            "type" : "VEC2"
        },
        {
            "bufferView" : 3,
            "componentType" : 5123,
            "count" : 2616,
            "type" : "SCALAR"
        },
        {
            "bufferView" : 4,
            "componentType" : 5126,
            "count" : 8,
            "max" : [
                0.2503758370876312,
                1.3732097148895264,
                0.1561301350593567
            ],
            "min" : [
                -0.2607486844062805,
                0.9929612278938293,
                0.1554887294769287
            ],
            "type" : "VEC3"
        },
        {
            "bufferView" : 5,
            "componentType" : 5126,
            "count" : 8,
            "type" : "VEC3"
        },
        {
            "bufferView" : 6,
            "componentType" : 5126,
            "count" : 8,
            "type" : "VEC2"
        },
        {
            "bufferView" : 7,
            "componentType" : 5123,
            "count" : 18,
            "type" : "SCALAR"
        },
        {
            "bufferView" : 8,
            "componentType" : 5126,
            "count" : 18364,
            "max" : [
                0.4616346061229706,
                1.6201726198196411,
                0.1785002052783966
            ],
            "min" : [
                -0.46316829323768616,
                0.14017260074615479,
                -0.20801842212677002
            ],
            "type" : "VEC3"
        },
        {
            "bufferView" : 9,
            "componentType" : 5126,
            "count" : 18364,
            "type" : "VEC3"
        },
        {
            "bufferView" : 10,
            "componentType" : 5126,
            "count" : 18364,
            "type" : "VEC2"
        },
        {
            "bufferView" : 11,
            "componentType" : 5123,
            "count" : 52092,
            "type" : "SCALAR"
        },
        {
            "bufferView" : 12,
            "componentType" : 5126,
            "count" : 108,
            "max" : [
                0.3963407278060913,
                0.4606701135635376,
                0.13303887844085693
            ],
            "min" : [
                0.09204594045877457,
                0.18446135520935059,
                0.13303886353969574
            ],
            "type" : "VEC3"
        },
        {
            "bufferView" : 13,
            "componentType" : 5126,
            "count" : 108,
            "type" : "VEC3"
        },
        {
            "bufferView" : 14,
            "componentType" : 5126,
            "count" : 108,
            "type" : "VEC2"
        },
        {
            "bufferView" : 15,
            "componentType" : 5123,
            "count" : 288,
            "type" : "SCALAR"
        },
        {
            "bufferView" : 16,
            "componentType" : 5126,
            "count" : 490,
            "max" : [
                -0.07954168319702148,
                0.7341227531433105,
                0.18299992382526398
            ],
            "min" : [
                -0.35194021463394165,
                0.4753730595111847,
                0.15386435389518738
            ],
            "type" : "VEC3"
        },
        {
            "bufferView" : 17,
            "componentType" : 5126,
            "count" : 490,
            "type" : "VEC3"
        },
        {
            "bufferView" : 18,
            "componentType" : 5126,
            "count" : 490,
            "type" : "VEC2"
        },
        {
            "bufferView" : 19,
            "componentType" : 5123,
            "count" : 1476,
            "type" : "SCALAR"
        },
        {
            "bufferView" : 20,
            "componentType" : 5126,
            "count" : 1896,
            "max" : [
                0.35354089736938477,
                0.7311213612556458,
                0.1816152036190033
            ],
            "min" : [
                0.1016257181763649,
                0.5069357752799988,
                0.1475776731967926
            ],
            "type" : "VEC3"
        },
        {
            "bufferView" : 21,
            "componentType" : 5126,
            "count" : 1896,
            "type" : "VEC3"
        },
        {
            "bufferView" : 22,
            "componentType" : 5126,
            "count" : 1896,
            "type" : "VEC2"
        },
        {
            "bufferView" : 23,
            "componentType" : 5123,
            "count" : 7812,
            "type" : "SCALAR"
        },
        {
            "bufferView" : 24,
            "componentType" : 5126,
            "count" : 896,
            "max" : [
                0.07941767573356628,
                0.3949536383152008,
                0.17882013320922852
            ],
            "min" : [
                -0.17512741684913635,
                0.29893791675567627,
                0.15101949870586395
            ],
            "type" : "VEC3"
        },
        {
            "bufferView" : 25,
            "componentType" : 5126,
            "count" : 896,
            "type" : "VEC3"
        },
        {
            "bufferView" : 26,
            "componentType" : 5126,
            "count" : 896,
            "type" : "VEC2"
        },
        {
            "bufferView" : 27,
            "componentType" : 5123,
            "count" : 2952,
            "type" : "SCALAR"
        },
        {
            "bufferView" : 28,
            "componentType" : 5126,
            "count" : 12,
            "max" : [
                -0.30727311968803406,
                1.2461001873016357,
                0.1594746708869934
            ],
            "min" : [
                -0.3225317895412445,
                1.2316904067993164,
                0.15937061607837677
            ],
            "type" : "VEC3"
        },
        {
            "bufferView" : 29,
            "componentType" : 5126,
            "count" : 12,
            "type" : "VEC3"
        },
        {
            "bufferView" : 30,
            "componentType" : 5126,
            "count" : 12,
            "type" : "VEC2"
        },
        {
            "bufferView" : 31,
            "componentType" : 5123,
            "count" : 30,
            "type" : "SCALAR"
        }
    ],
    "bufferViews" : [
        {
            "buffer" : 0,
            "byteLength" : 10272,
            "byteOffset" : 0
        },
        {
            "buffer" : 0,
            "byteLength" : 10272,
            "byteOffset" : 10272
        },
        {
            "buffer" : 0,
            "byteLength" : 6848,
            "byteOffset" : 20544
        },
        {
            "buffer" : 0,
            "byteLength" : 5232,
            "byteOffset" : 27392
        },
        {
            "buffer" : 0,
            "byteLength" : 96,
            "byteOffset" : 32624
        },
        {
            "buffer" : 0,
            "byteLength" : 96,
            "byteOffset" : 32720
        },
        {
            "buffer" : 0,
            "byteLength" : 64,
            "byteOffset" : 32816
        },
        {
            "buffer" : 0,
            "byteLength" : 36,
            "byteOffset" : 32880
        },
        {
            "buffer" : 0,
            "byteLength" : 220368,
            "byteOffset" : 32916
        },
        {
            "buffer" : 0,
            "byteLength" : 220368,
            "byteOffset" : 253284
        },
        {
            "buffer" : 0,
            "byteLength" : 146912,
            "byteOffset" : 473652
        },
        {
            "buffer" : 0,
            "byteLength" : 104184,
            "byteOffset" : 620564
        },
        {
            "buffer" : 0,
            "byteLength" : 1296,
            "byteOffset" : 724748
        },
        {
            "buffer" : 0,
            "byteLength" : 1296,
            "byteOffset" : 726044
        },
        {
            "buffer" : 0,
            "byteLength" : 864,
            "byteOffset" : 727340
        },
        {
            "buffer" : 0,
            "byteLength" : 576,
            "byteOffset" : 728204
        },
        {
            "buffer" : 0,
            "byteLength" : 5880,
            "byteOffset" : 728780
        },
        {
            "buffer" : 0,
            "byteLength" : 5880,
            "byteOffset" : 734660
        },
        {
            "buffer" : 0,
            "byteLength" : 3920,
            "byteOffset" : 740540
        },
        {
            "buffer" : 0,
            "byteLength" : 2952,
            "byteOffset" : 744460
        },
        {
            "buffer" : 0,
            "byteLength" : 22752,
            "byteOffset" : 747412
        },
        {
            "buffer" : 0,
            "byteLength" : 22752,
            "byteOffset" : 770164
        },
        {
            "buffer" : 0,
            "byteLength" : 15168,
            "byteOffset" : 792916
        },
        {
            "buffer" : 0,
            "byteLength" : 15624,
            "byteOffset" : 808084
        },
        {
            "buffer" : 0,
            "byteLength" : 10752,
            "byteOffset" : 823708
        },
        {
            "buffer" : 0,
            "byteLength" : 10752,
            "byteOffset" : 834460
        },
        {
            "buffer" : 0,
            "byteLength" : 7168,
            "byteOffset" : 845212
        },
        {
            "buffer" : 0,
            "byteLength" : 5904,
            "byteOffset" : 852380
        },
        {
            "buffer" : 0,
            "byteLength" : 144,
            "byteOffset" : 858284
        },
        {
            "buffer" : 0,
            "byteLength" : 144,
            "byteOffset" : 858428
        },
        {
            "buffer" : 0,
            "byteLength" : 96,
            "byteOffset" : 858572
        },
        {
            "buffer" : 0,
            "byteLength" : 60,
            "byteOffset" : 858668
        }
    ],
    "buffers" : [
        {
            "byteLength" : 858728,
            "uri" : "data:application/octet-stream;base64,"
        }
    ]
}
